#!OML:ASF H:\Punching\Project 1\Capture day 1\Session 1\female.ASF
:FULLY-SPECIFIED
:DEGREES
1561
root 2.53816 14.7132 -0.608457 13.27 -18.0898 -4.9314
lowerback 3.34599 -2.09194 -0.766903
upperback -5.66806 -2.85919 0.459087
thorax -7.74349 -1.3564 1.19657
lowerneck -3.43583 9.77955 22.4713
upperneck 32.7636 11.2592 -2.75759
head 13.3176 7.31554 -3.30979
rclavicle -4.81929e-014 3.97569e-015
rhumerus 0.720932 27.692 -82.8194
rradius 128.746
rwrist -50.9937
rhand -10.0236 -14.31
rfingers 7.12502
rthumb 15.9609 -43.6724
lclavicle -4.81929e-014 3.97569e-015
lhumerus 19.7385 -30.4483 77.5686
lradius 139.561
lwrist 20.28
lhand -21.8631 12.0453
lfingers 7.12502
lthumb 4.54099 41.9767
rfemur 7.20268 7.10217 7.36724
rtibia 3.18055e-015
rfoot -9.78495 -26.8343
rtoes -19.301
lfemur -40.2897 6.60056 -2.55575
ltibia 48.6836
lfoot -12.6055 22.3056
ltoes -0.81757
1562
root 2.53604 14.7049 -0.603933 13.2414 -17.4864 -5.00847
lowerback 3.26305 -2.20474 -0.634848
upperback -5.68056 -2.99885 0.488231
thorax -7.7105 -1.43244 1.1637
lowerneck -3.6152 9.65929 22.3773
upperneck 32.92 10.9524 -2.45035
head 13.3528 7.20714 -3.21489
rclavicle -5.8306e-014 -1.59028e-014
rhumerus 1.25462 27.7608 -82.648
rradius 128.799
rwrist -49.7171
rhand -10.4205 -14.552
rfingers 7.12502
rthumb 15.5787 -43.9446
lclavicle -5.8306e-014 -1.59028e-014
lhumerus 19.7902 -30.5783 77.9864
lradius 139.28
lwrist 20.3827
lhand -21.8877 12.0474
lfingers 7.12502
lthumb 4.51718 41.9793
rfemur 7.50815 6.51882 7.58687
rtibia -2.22639e-014
rfoot -9.90842 -26.7425
rtoes -19.2148
lfemur -40.6069 6.45622 -2.466
ltibia 48.8637
lfoot -12.4512 21.9289
ltoes -1.13653
1563
root 2.53223 14.6985 -0.599256 13.1802 -16.7627 -5.0255
lowerback 3.18785 -2.25358 -0.583425
upperback -5.68877 -3.05718 0.530921
thorax -7.67453 -1.4631 1.18202
lowerneck -3.94562 9.46155 22.1221
upperneck 33.1141 10.4972 -2.06277
head 13.3954 7.02542 -3.0822
rclavicle -5.91384e-015 1.59028e-014
rhumerus 1.99558 27.8631 -82.3865
rradius 128.725
rwrist -48.3068
rhand -10.9304 -14.7885
rfingers 7.12502
rthumb 15.0875 -44.2187
lclavicle -5.91384e-015 1.59028e-014
lhumerus 19.8144 -30.841 78.513
lradius 138.966
lwrist 20.307
lhand -21.8454 11.9754
lfingers 7.12502
lthumb 4.55803 41.9063
rfemur 7.87983 5.81013 7.78261
rtibia -9.54166e-015
rfoot -10.0686 -26.6635
rtoes -19.0214
lfemur -40.9235 6.28764 -2.44816
ltibia 48.9549
lfoot -12.2313 21.4645
ltoes -1.50602
1564
root 2.52675 14.6938 -0.594474 13.0936 -15.9052 -4.98919
lowerback 3.11982 -2.23822 -0.578743
upperback -5.70667 -3.03256 0.570958
thorax -7.65263 -1.44995 1.21622
lowerneck -4.36963 9.17331 21.7331
upperneck 33.3164 9.89165 -1.61024
head 13.4276 6.77123 -2.92455
rclavicle -7.64079e-015 1.98785e-014
rhumerus 2.89196 27.9486 -82.0569
rradius 128.511
rwrist -46.8025
rhand -11.5093 -15.0156
rfingers 7.12502
rthumb 14.5299 -44.4868
lclavicle -7.64079e-015 1.98785e-014
lhumerus 19.7899 -31.2597 79.1143
lradius 138.651
lwrist 20.0759
lhand -21.768 11.8729
lfingers 7.12502
lthumb 4.63282 41.8023
rfemur 8.31683 4.96384 7.95788
rtibia -1.59028e-014
rfoot -10.2636 -26.5889
rtoes -18.721
lfemur -41.2507 6.07651 -2.49587
ltibia 48.9612
lfoot -11.9526 20.9253
ltoes -1.90429
1565
root 2.51956 14.6905 -0.589529 12.9922 -14.9035 -4.90858
lowerback 3.05518 -2.16744 -0.611967
upperback -5.72748 -2.93573 0.612425
thorax -7.63548 -1.39875 1.2665
lowerneck -4.89737 8.8045 21.231
upperneck 33.5185 9.15686 -1.1234
head 13.4582 6.45288 -2.75263
rclavicle -9.15279e-014 -4.77083e-015
rhumerus 3.96607 27.988 -81.6432
rradius 128.138
rwrist -45.2744
rhand -12.0854 -15.2881
rfingers 7.12502
rthumb 13.9747 -44.7984
lclavicle -9.15279e-014 -4.77083e-015
lhumerus 19.7296 -31.8013 79.7583
lradius 138.359
lwrist 19.7523
lhand -21.6622 11.738
lfingers 7.12502
lthumb 4.73496 41.6651
rfemur 8.81507 3.97068 8.11703
rtibia -1.27222e-014
rfoot -10.5057 -26.5079
rtoes -18.2875
lfemur -41.6014 5.81129 -2.60024
ltibia 48.8883
lfoot -11.6227 20.3175
ltoes -2.32099
1566
root 2.51058 14.6882 -0.584267 12.889 -13.7548 -4.7902
lowerback 2.98127 -2.06643 -0.677808
upperback -5.7667 -2.79882 0.676871
thorax -7.63128 -1.32487 1.35556
lowerneck -5.43421 8.36385 20.5843
upperneck 33.6979 8.34296 -0.618275
head 13.466 6.0867 -2.56392
rclavicle -4.92737e-014 7.95139e-016
rhumerus 5.19321 28.0147 -81.1446
rradius 127.587
rwrist -43.7871
rhand -12.5494 -15.6311
rfingers 7.12502
rthumb 13.5275 -45.1717
lclavicle -4.92737e-014 7.95139e-016
lhumerus 19.5816 -32.3852 80.4454
lradius 138.112
lwrist 19.4069
lhand -21.546 11.5651
lfingers 7.12502
lthumb 4.84711 41.4897
rfemur 9.36476 2.82763 8.26016
rtibia -4.13472e-014
rfoot -10.7975 -26.4114
rtoes -17.7052
lfemur -41.9875 5.4888 -2.75611
ltibia 48.7424
lfoot -11.2495 19.6442
ltoes -2.74159
1567
root 2.49994 14.6864 -0.57834 12.794 -12.4626 -4.6338
lowerback 2.88696 -1.9275 -0.747338
upperback -5.83915 -2.61121 0.738972
thorax -7.65299 -1.22539 1.43992
lowerneck -5.92769 7.83633 19.8287
upperneck 33.8419 7.43889 -0.0995175
head 13.4401 5.67093 -2.3683
rclavicle 5.48521e-015 5.56597e-015
rhumerus 6.49701 27.9657 -80.5981
rradius 126.858
rwrist -42.3976
rhand -12.7972 -16.0968
rfingers 7.12502
rthumb 13.2887 -45.6531
lclavicle 5.48521e-015 5.56597e-015
lhumerus 19.3224 -33.0412 81.1627
lradius 137.926
lwrist 19.099
lhand -21.4329 11.367
lfingers 7.12502
lthumb 4.95637 41.289
rfemur 9.95664 1.5371 8.37873
rtibia -2.22639e-014
rfoot -11.1294 -26.2926
rtoes -16.992
lfemur -42.4158 5.10589 -2.96469
ltibia 48.5304
lfoot -10.8415 18.9055
ltoes -3.16178
1568
root 2.48787 14.6853 -0.571839 12.7263 -11.0469 -4.4427
lowerback 2.75466 -1.75193 -0.815371
upperback -5.94166 -2.37437 0.792486
thorax -7.68775 -1.10165 1.50963
lowerneck -6.37931 7.23245 18.9775
upperneck 33.951 6.45859 0.432531
head 13.3881 5.21244 -2.16391
rclavicle 3.61974e-014 -9.54166e-015
rhumerus 7.87374 27.8096 -80.0098
rradius 125.945
rwrist -41.1807
rhand -12.736 -16.697
rfingers 7.12502
rthumb 13.3476 -46.2495
lclavicle 3.61974e-014 -9.54166e-015
lhumerus 18.982 -33.7184 81.8698
lradius 137.8
lwrist 18.8958
lhand -21.3615 11.1999
lfingers 7.12502
lthumb 5.02526 41.1203
rfemur 10.5623 0.116295 8.46682
rtibia -2.54444e-014
rfoot -11.4639 -26.151
rtoes -16.1966
lfemur -42.8962 4.67648 -3.22502
ltibia 48.2576
lfoot -10.4016 18.1011
ltoes -3.57823
1569
root 2.47458 14.6845 -0.564813 12.6894 -9.52798 -4.2094
lowerback 2.58576 -1.52957 -0.875666
upperback -6.07734 -2.07563 0.81395
thorax -7.74139 -0.948392 1.53591
lowerneck -6.77877 6.54826 18.0619
upperneck 34.0253 5.39231 0.981012
head 13.313 4.71054 -1.95452
rclavicle -6.98977e-014 -1.74931e-014
rhumerus 9.28664 27.4939 -79.4012
rradius 124.845
rwrist -40.1925
rhand -12.3354 -17.4303
rfingers 7.12502
rthumb 13.7338 -46.9571
lclavicle -6.98977e-014 -1.74931e-014
lhumerus 18.568 -34.4335 82.5523
lradius 137.717
lwrist 18.8067
lhand -21.3026 11.0393
lfingers 7.12502
lthumb 5.08216 40.9584
rfemur 11.1743 -1.41632 8.50779
rtibia -3.49861e-014
rfoot -11.7949 -25.9746
rtoes -15.356
lfemur -43.4232 4.20714 -3.54499
ltibia 47.9292
lfoot -9.93542 17.2315
ltoes -3.991
